<?xml version="1.0" encoding="UTF-8" standalone="no"?>
<svg
   xmlns:dc="http://purl.org/dc/elements/1.1/"
   xmlns:cc="http://creativecommons.org/ns#"
   xmlns:rdf="http://www.w3.org/1999/02/22-rdf-syntax-ns#"
   xmlns:svg="http://www.w3.org/2000/svg"
   xmlns="http://www.w3.org/2000/svg"
   style="font-style:normal;font-weight:normal;font-size:12px;font-family:Dialog;color-interpolation:auto;fill:#000000;fill-opacity:1;stroke:#000000;stroke-width:1;stroke-linecap:square;stroke-linejoin:miter;stroke-miterlimit:10;stroke-dasharray:none;stroke-dashoffset:0;stroke-opacity:1;color-rendering:auto;image-rendering:auto;shape-rendering:auto;text-rendering:auto"
   version="1.1"
   id="svg2"
   font-size="12px"
   font-style="normal"
   height="37.2em"
   font-weight="normal"
   stroke-miterlimit="10"
   width="75.2em"
   viewBox="0 0 752 372">
  <metadata
     id="metadata314">
    <rdf:RDF>
      <cc:Work
         rdf:about="">
        <dc:format>image/svg+xml</dc:format>
        <dc:type
           rdf:resource="http://purl.org/dc/dcmitype/StillImage" />
        <dc:title></dc:title>
      </cc:Work>
    </rdf:RDF>
  </metadata>
  <!--Generated by ySVG 2.5-->
  <defs
     id="genericDefs" />
  <g
     transform="translate(10,10)"
     id="g5">
    <defs
       id="defs1">
      <clipPath
         id="clipPath1"
         clipPathUnits="userSpaceOnUse">
        <path
           id="path9"
           d="M 0,0 732,0 732,352 0,352 0,0 Z" />
      </clipPath>
      <clipPath
         id="clipPath2"
         clipPathUnits="userSpaceOnUse">
        <path
           id="path12"
           d="m 129,135 732,0 0,352 -732,0 0,-352 z" />
      </clipPath>
    </defs>
    <g
       style="fill:#ffffff;stroke:#ffffff;shape-rendering:geometricPrecision;text-rendering:geometricPrecision"
       id="g14"
       transform="translate(-129,-135)">
      <rect
         style="stroke:none"
         id="rect16"
         clip-path="url(#clipPath2)"
         y="135"
         height="352"
         width="732"
         x="129" />
    </g>
    <g
       style="fill:#d6e5ff;stroke:#d6e5ff;shape-rendering:geometricPrecision;text-rendering:geometricPrecision"
       id="g18"
       transform="translate(-129,-135)">
      <rect
         style="stroke:none"
         id="rect20"
         clip-path="url(#clipPath2)"
         y="150.5"
         height="321"
         width="143"
         x="559.5" />
    </g>
    <g
       style="font-weight:bold;font-size:16px;font-family:sans-serif;stroke-linecap:butt;stroke-miterlimit:1.45000005;shape-rendering:geometricPrecision;text-rendering:geometricPrecision"
       id="g22"
       stroke-miterlimit="1.45"
       font-weight="bold"
       transform="translate(-129,-135)"
       font-size="16px">
      <text
         style="line-height:125%;stroke:none"
         id="text24"
         clip-path="url(#clipPath2)"
         y="172.58591"
         xml:space="preserve"
         x="566.39063"><tspan
           id="tspan4446"
           style="font-style:normal;font-variant:normal;font-weight:bold;font-stretch:normal;font-size:16px;line-height:125%;font-family:Arial;-inkscape-font-specification:'Arial, Bold';text-align:start;writing-mode:lr-tb;text-anchor:start">3. Компоновщик</tspan></text>
      <rect
         style="fill:none"
         id="rect26"
         clip-path="url(#clipPath2)"
         y="150.5"
         height="321"
         width="143"
         x="559.5" />
    </g>
    <g
       style="fill:#e8ffe8;stroke:#e8ffe8;shape-rendering:geometricPrecision;text-rendering:geometricPrecision"
       id="g28"
       transform="translate(-129,-135)">
      <rect
         style="stroke:none"
         id="rect30"
         clip-path="url(#clipPath2)"
         y="150.5"
         height="321"
         width="143"
         x="416.5" />
    </g>
    <g
       style="font-weight:bold;font-size:16px;font-family:sans-serif;stroke-linecap:butt;stroke-miterlimit:1.45000005;shape-rendering:geometricPrecision;text-rendering:geometricPrecision"
       id="g32"
       stroke-miterlimit="1.45"
       font-weight="bold"
       transform="translate(-129,-135)"
       font-size="16px">
      <text
         style="line-height:125%;stroke:none"
         id="text34"
         clip-path="url(#clipPath2)"
         y="172.58591"
         xml:space="preserve"
         x="430.22659"><tspan
           id="tspan4444"
           style="font-style:normal;font-variant:normal;font-weight:bold;font-stretch:normal;font-size:16px;line-height:125%;font-family:Arial;-inkscape-font-specification:'Arial, Bold';text-align:start;writing-mode:lr-tb;text-anchor:start">2. Компилятор</tspan></text>
      <rect
         style="fill:none"
         id="rect36"
         clip-path="url(#clipPath2)"
         y="150.5"
         height="321"
         width="143"
         x="416.5" />
    </g>
    <g
       style="fill:#fff1bc;stroke:#fff1bc;shape-rendering:geometricPrecision;text-rendering:geometricPrecision"
       id="g38"
       transform="translate(-129,-135)">
      <rect
         style="stroke:none"
         id="rect40"
         clip-path="url(#clipPath2)"
         y="150.5"
         height="321"
         width="272"
         x="144.5" />
    </g>
    <g
       style="font-weight:bold;font-size:16px;font-family:sans-serif;stroke-linecap:butt;stroke-miterlimit:1.45000005;shape-rendering:geometricPrecision;text-rendering:geometricPrecision"
       id="g42"
       stroke-miterlimit="1.45"
       font-weight="bold"
       transform="translate(-129,-135)"
       font-size="16px">
      <text
         style="line-height:125%;stroke:none"
         id="text44"
         clip-path="url(#clipPath2)"
         y="172.58591"
         xml:space="preserve"
         x="213.875"><tspan
           id="tspan4442"
           style="font-style:normal;font-variant:normal;font-weight:bold;font-stretch:normal;font-size:16px;line-height:125%;font-family:Arial;-inkscape-font-specification:'Arial, Bold';text-align:start;writing-mode:lr-tb;text-anchor:start">1. Препроцессор</tspan></text>
      <rect
         style="fill:none"
         id="rect46"
         clip-path="url(#clipPath2)"
         y="150.5"
         height="321"
         width="272"
         x="144.5" />
    </g>
    <g
       style="fill:#ccffff;stroke:#ccffff;shape-rendering:geometricPrecision;text-rendering:geometricPrecision"
       id="g48"
       transform="translate(-129,-135)">
      <path
         style="stroke:none"
         id="path50"
         clip-path="url(#clipPath2)"
         d="m 165.5,423 35,0 0,15 15,0 0,12 -50,0 z" />
      <path
         style="fill:#ffffff;fill-rule:evenodd;stroke:none"
         id="path52"
         clip-path="url(#clipPath2)"
         d="m 200.5,423 0,15 15,0 z" />
    </g>
    <g
       style="stroke-linecap:butt;stroke-miterlimit:1.45000005;shape-rendering:geometricPrecision;text-rendering:geometricPrecision"
       id="g54"
       transform="translate(-129,-135)"
       stroke-miterlimit="1.45">
      <path
         style="fill:none"
         id="path56"
         clip-path="url(#clipPath2)"
         d="m 165.5,423 35,0 0,15 15,0 0,12 -50,0 z" />
      <path
         style="fill:none;fill-rule:evenodd"
         id="path58"
         clip-path="url(#clipPath2)"
         d="m 200.5,423 0,15 15,0 z" />
      <text
         style="font-family:sans-serif;stroke:none"
         id="text60"
         clip-path="url(#clipPath2)"
         y="441.2139"
         xml:space="preserve"
         x="171.5">.h</text>
    </g>
    <g
       style="fill:#ccffff;stroke:#ccffff;shape-rendering:geometricPrecision;text-rendering:geometricPrecision"
       id="g62"
       transform="translate(-129,-135)">
      <path
         style="stroke:none"
         id="path64"
         clip-path="url(#clipPath2)"
         d="m 165.5,343.5 35,0 0,15 15,0 0,12 -50,0 z" />
      <path
         style="fill:#ffffff;fill-rule:evenodd;stroke:none"
         id="path66"
         clip-path="url(#clipPath2)"
         d="m 200.5,343.5 0,15 15,0 z" />
    </g>
    <g
       style="stroke-linecap:butt;stroke-miterlimit:1.45000005;shape-rendering:geometricPrecision;text-rendering:geometricPrecision"
       id="g68"
       transform="translate(-129,-135)"
       stroke-miterlimit="1.45">
      <path
         style="fill:none"
         id="path70"
         clip-path="url(#clipPath2)"
         d="m 165.5,343.5 35,0 0,15 15,0 0,12 -50,0 z" />
      <path
         style="fill:none;fill-rule:evenodd"
         id="path72"
         clip-path="url(#clipPath2)"
         d="m 200.5,343.5 0,15 15,0 z" />
      <text
         style="font-family:sans-serif;stroke:none"
         id="text74"
         clip-path="url(#clipPath2)"
         y="361.7139"
         xml:space="preserve"
         x="171.5">.h</text>
    </g>
    <g
       style="fill:#ccffff;stroke:#ccffff;shape-rendering:geometricPrecision;text-rendering:geometricPrecision"
       id="g76"
       transform="translate(-129,-135)">
      <path
         style="stroke:none"
         id="path78"
         clip-path="url(#clipPath2)"
         d="m 258,386.5 35,0 0,15 15,0 0,12 -50,0 z" />
      <path
         style="fill:#ffffff;fill-rule:evenodd;stroke:none"
         id="path80"
         clip-path="url(#clipPath2)"
         d="m 293,386.5 0,15 15,0 z" />
    </g>
    <g
       style="stroke-linecap:butt;stroke-miterlimit:1.45000005;shape-rendering:geometricPrecision;text-rendering:geometricPrecision"
       id="g82"
       transform="translate(-129,-135)"
       stroke-miterlimit="1.45">
      <path
         style="fill:none"
         id="path84"
         clip-path="url(#clipPath2)"
         d="m 258,386.5 35,0 0,15 15,0 0,12 -50,0 z" />
      <path
         style="fill:none;fill-rule:evenodd"
         id="path86"
         clip-path="url(#clipPath2)"
         d="m 293,386.5 0,15 15,0 z" />
      <text
         style="font-family:sans-serif;stroke:none"
         id="text88"
         clip-path="url(#clipPath2)"
         y="404.7139"
         xml:space="preserve"
         x="264">.h</text>
    </g>
    <g
       style="fill:#ccffff;stroke:#ccffff;shape-rendering:geometricPrecision;text-rendering:geometricPrecision"
       id="g90"
       transform="translate(-129,-135)">
      <path
         style="stroke:none"
         id="path92"
         clip-path="url(#clipPath2)"
         d="m 258,287.5 35,0 0,15 15,0 0,12 -50,0 z" />
      <path
         style="fill:#ffffff;fill-rule:evenodd;stroke:none"
         id="path94"
         clip-path="url(#clipPath2)"
         d="m 293,287.5 0,15 15,0 z" />
    </g>
    <g
       style="stroke-linecap:butt;stroke-miterlimit:1.45000005;shape-rendering:geometricPrecision;text-rendering:geometricPrecision"
       id="g96"
       transform="translate(-129,-135)"
       stroke-miterlimit="1.45">
      <path
         style="fill:none"
         id="path98"
         clip-path="url(#clipPath2)"
         d="m 258,287.5 35,0 0,15 15,0 0,12 -50,0 z" />
      <path
         style="fill:none;fill-rule:evenodd"
         id="path100"
         clip-path="url(#clipPath2)"
         d="m 293,287.5 0,15 15,0 z" />
      <text
         style="font-family:sans-serif;stroke:none"
         id="text102"
         clip-path="url(#clipPath2)"
         y="305.7139"
         xml:space="preserve"
         x="264">.h</text>
    </g>
    <g
       style="fill:#ffff99;stroke:#ffff99;shape-rendering:geometricPrecision;text-rendering:geometricPrecision"
       id="g104"
       transform="translate(-129,-135)">
      <path
         style="stroke:none"
         id="path106"
         clip-path="url(#clipPath2)"
         d="m 350.5,343.5 35,0 0,15 15,0 0,12 -50,0 z" />
      <path
         style="fill:#ffffff;fill-rule:evenodd;stroke:none"
         id="path108"
         clip-path="url(#clipPath2)"
         d="m 385.5,343.5 0,15 15,0 z" />
    </g>
    <g
       style="stroke-linecap:butt;stroke-miterlimit:1.45000005;shape-rendering:geometricPrecision;text-rendering:geometricPrecision"
       id="g110"
       transform="translate(-129,-135)"
       stroke-miterlimit="1.45">
      <path
         style="fill:none"
         id="path112"
         clip-path="url(#clipPath2)"
         d="m 350.5,343.5 35,0 0,15 15,0 0,12 -50,0 z" />
      <path
         style="fill:none;fill-rule:evenodd"
         id="path114"
         clip-path="url(#clipPath2)"
         d="m 385.5,343.5 0,15 15,0 z" />
      <text
         style="font-family:sans-serif;stroke:none"
         id="text116"
         clip-path="url(#clipPath2)"
         y="361.7139"
         xml:space="preserve"
         x="356.5">.cpp</text>
    </g>
    <g
       style="fill:#ccffff;stroke:#ccffff;shape-rendering:geometricPrecision;text-rendering:geometricPrecision"
       id="g118"
       transform="translate(-129,-135)">
      <path
         style="stroke:none"
         id="path120"
         clip-path="url(#clipPath2)"
         d="m 258,195.5 35,0 0,15 15,0 0,12 -50,0 z" />
      <path
         style="fill:#ffffff;fill-rule:evenodd;stroke:none"
         id="path122"
         clip-path="url(#clipPath2)"
         d="m 293,195.5 0,15 15,0 z" />
    </g>
    <g
       style="stroke-linecap:butt;stroke-miterlimit:1.45000005;shape-rendering:geometricPrecision;text-rendering:geometricPrecision"
       id="g124"
       transform="translate(-129,-135)"
       stroke-miterlimit="1.45">
      <path
         style="fill:none"
         id="path126"
         clip-path="url(#clipPath2)"
         d="m 258,195.5 35,0 0,15 15,0 0,12 -50,0 z" />
      <path
         style="fill:none;fill-rule:evenodd"
         id="path128"
         clip-path="url(#clipPath2)"
         d="m 293,195.5 0,15 15,0 z" />
      <text
         style="font-family:sans-serif;stroke:none"
         id="text130"
         clip-path="url(#clipPath2)"
         y="213.7139"
         xml:space="preserve"
         x="264">.h</text>
    </g>
    <g
       style="fill:#ffff99;stroke:#ffff99;shape-rendering:geometricPrecision;text-rendering:geometricPrecision"
       id="g132"
       transform="translate(-129,-135)">
      <path
         style="stroke:none"
         id="path134"
         clip-path="url(#clipPath2)"
         d="m 350.5,230.5 35,0 0,15 15,0 0,12 -50,0 z" />
      <path
         style="fill:#ffffff;fill-rule:evenodd;stroke:none"
         id="path136"
         clip-path="url(#clipPath2)"
         d="m 385.5,230.5 0,15 15,0 z" />
    </g>
    <g
       style="stroke-linecap:butt;stroke-miterlimit:1.45000005;shape-rendering:geometricPrecision;text-rendering:geometricPrecision"
       id="g138"
       transform="translate(-129,-135)"
       stroke-miterlimit="1.45">
      <path
         style="fill:none"
         id="path140"
         clip-path="url(#clipPath2)"
         d="m 350.5,230.5 35,0 0,15 15,0 0,12 -50,0 z" />
      <path
         style="fill:none;fill-rule:evenodd"
         id="path142"
         clip-path="url(#clipPath2)"
         d="m 385.5,230.5 0,15 15,0 z" />
      <text
         style="font-family:sans-serif;stroke:none"
         id="text144"
         clip-path="url(#clipPath2)"
         y="248.7139"
         xml:space="preserve"
         x="356.5">.cpp</text>
    </g>
    <g
       style="fill:#ffcc99;stroke:#ffcc99;shape-rendering:geometricPrecision;text-rendering:geometricPrecision"
       id="g146"
       transform="translate(-129,-135)">
      <path
         style="stroke:none"
         id="path148"
         clip-path="url(#clipPath2)"
         d="m 463,343.5 35,0 0,15 15,0 0,12 -50,0 z" />
      <path
         style="fill:#ffffff;fill-rule:evenodd;stroke:none"
         id="path150"
         clip-path="url(#clipPath2)"
         d="m 498,343.5 0,15 15,0 z" />
    </g>
    <g
       style="stroke-linecap:butt;stroke-miterlimit:1.45000005;shape-rendering:geometricPrecision;text-rendering:geometricPrecision"
       id="g152"
       transform="translate(-129,-135)"
       stroke-miterlimit="1.45">
      <path
         style="fill:none"
         id="path154"
         clip-path="url(#clipPath2)"
         d="m 463,343.5 35,0 0,15 15,0 0,12 -50,0 z" />
      <path
         style="fill:none;fill-rule:evenodd"
         id="path156"
         clip-path="url(#clipPath2)"
         d="m 498,343.5 0,15 15,0 z" />
      <text
         style="font-family:sans-serif;stroke:none"
         id="text158"
         clip-path="url(#clipPath2)"
         y="361.7139"
         xml:space="preserve"
         x="469">.obj</text>
    </g>
    <g
       style="fill:#ffcc99;stroke:#ffcc99;shape-rendering:geometricPrecision;text-rendering:geometricPrecision"
       id="g160"
       transform="translate(-129,-135)">
      <path
         style="stroke:none"
         id="path162"
         clip-path="url(#clipPath2)"
         d="m 463,230.5 35,0 0,15 15,0 0,12 -50,0 z" />
      <path
         style="fill:#ffffff;fill-rule:evenodd;stroke:none"
         id="path164"
         clip-path="url(#clipPath2)"
         d="m 498,230.5 0,15 15,0 z" />
    </g>
    <g
       style="stroke-linecap:butt;stroke-miterlimit:1.45000005;shape-rendering:geometricPrecision;text-rendering:geometricPrecision"
       id="g166"
       transform="translate(-129,-135)"
       stroke-miterlimit="1.45">
      <path
         style="fill:none"
         id="path168"
         clip-path="url(#clipPath2)"
         d="m 463,230.5 35,0 0,15 15,0 0,12 -50,0 z" />
      <path
         style="fill:none;fill-rule:evenodd"
         id="path170"
         clip-path="url(#clipPath2)"
         d="m 498,230.5 0,15 15,0 z" />
      <text
         style="font-family:sans-serif;stroke:none"
         id="text172"
         clip-path="url(#clipPath2)"
         y="248.7139"
         xml:space="preserve"
         x="469">.obj</text>
    </g>
    <g
       style="fill:#ffcc99;stroke:#ffcc99;shape-rendering:geometricPrecision;text-rendering:geometricPrecision"
       id="g174"
       transform="translate(-129,-135)">
      <path
         style="stroke:none"
         id="path176"
         clip-path="url(#clipPath2)"
         d="m 463,423 35,0 0,15 15,0 0,12 -50,0 z" />
      <path
         style="fill:#ffffff;fill-rule:evenodd;stroke:none"
         id="path178"
         clip-path="url(#clipPath2)"
         d="m 498,423 0,15 15,0 z" />
    </g>
    <g
       style="stroke-linecap:butt;stroke-miterlimit:1.45000005;shape-rendering:geometricPrecision;text-rendering:geometricPrecision"
       id="g180"
       transform="translate(-129,-135)"
       stroke-miterlimit="1.45">
      <path
         style="fill:none"
         id="path182"
         clip-path="url(#clipPath2)"
         d="m 463,423 35,0 0,15 15,0 0,12 -50,0 z" />
      <path
         style="fill:none;fill-rule:evenodd"
         id="path184"
         clip-path="url(#clipPath2)"
         d="m 498,423 0,15 15,0 z" />
      <text
         style="font-family:sans-serif;stroke:none"
         id="text186"
         clip-path="url(#clipPath2)"
         y="441.2139"
         xml:space="preserve"
         x="469">.lib</text>
    </g>
    <g
       style="fill:#cc99ff;stroke:#cc99ff;shape-rendering:geometricPrecision;text-rendering:geometricPrecision"
       id="g188"
       transform="translate(-129,-135)">
      <path
         style="stroke:none"
         id="path190"
         clip-path="url(#clipPath2)"
         d="m 606,343.5 35,0 0,15 15,0 0,12 -50,0 z" />
      <path
         style="fill:#ffffff;fill-rule:evenodd;stroke:none"
         id="path192"
         clip-path="url(#clipPath2)"
         d="m 641,343.5 0,15 15,0 z" />
    </g>
    <g
       style="stroke-linecap:butt;stroke-miterlimit:1.45000005;shape-rendering:geometricPrecision;text-rendering:geometricPrecision"
       id="g194"
       transform="translate(-129,-135)"
       stroke-miterlimit="1.45">
      <path
         style="fill:none"
         id="path196"
         clip-path="url(#clipPath2)"
         d="m 606,343.5 35,0 0,15 15,0 0,12 -50,0 z" />
      <path
         style="fill:none;fill-rule:evenodd"
         id="path198"
         clip-path="url(#clipPath2)"
         d="m 641,343.5 0,15 15,0 z" />
      <text
         style="font-family:sans-serif;stroke:none"
         id="text200"
         clip-path="url(#clipPath2)"
         y="361.7139"
         xml:space="preserve"
         x="612">.exe</text>
    </g>
    <g
       style="fill:#cc99ff;stroke:#cc99ff;shape-rendering:geometricPrecision;text-rendering:geometricPrecision"
       id="g202"
       transform="translate(-129,-135)">
      <path
         style="stroke:none"
         id="path204"
         clip-path="url(#clipPath2)"
         d="m 606,423 35,0 0,15 15,0 0,12 -50,0 z" />
      <path
         style="fill:#ffffff;fill-rule:evenodd;stroke:none"
         id="path206"
         clip-path="url(#clipPath2)"
         d="m 641,423 0,15 15,0 z" />
    </g>
    <g
       style="stroke-linecap:butt;stroke-miterlimit:1.45000005;shape-rendering:geometricPrecision;text-rendering:geometricPrecision"
       id="g208"
       transform="translate(-129,-135)"
       stroke-miterlimit="1.45">
      <path
         style="fill:none"
         id="path210"
         clip-path="url(#clipPath2)"
         d="m 606,423 35,0 0,15 15,0 0,12 -50,0 z" />
      <path
         style="fill:none;fill-rule:evenodd"
         id="path212"
         clip-path="url(#clipPath2)"
         d="m 641,423 0,15 15,0 z" />
      <text
         style="font-family:sans-serif;stroke:none"
         id="text214"
         clip-path="url(#clipPath2)"
         y="441.2139"
         xml:space="preserve"
         x="612">.dll</text>
    </g>
    <g
       style="fill:#f6d6ff;stroke:#f6d6ff;shape-rendering:geometricPrecision;text-rendering:geometricPrecision"
       id="g216"
       transform="translate(-129,-135)">
      <rect
         style="stroke:none"
         id="rect218"
         clip-path="url(#clipPath2)"
         y="150.5"
         height="321"
         width="143"
         x="702.5" />
    </g>
    <g
       style="font-weight:bold;font-size:16px;font-family:sans-serif;stroke-linecap:butt;stroke-miterlimit:1.45000005;shape-rendering:geometricPrecision;text-rendering:geometricPrecision"
       id="g220"
       stroke-miterlimit="1.45"
       font-weight="bold"
       transform="translate(-129,-135)"
       font-size="16px">
      <text
         style="line-height:125%;stroke:none"
         id="text222"
         clip-path="url(#clipPath2)"
         y="172.58591"
         xml:space="preserve"
         x="753.10553"><tspan
           id="tspan4448"
           style="font-style:normal;font-variant:normal;font-weight:bold;font-stretch:normal;font-size:16px;line-height:125%;font-family:Arial;-inkscape-font-specification:'Arial, Bold';text-align:start;writing-mode:lr-tb;text-anchor:start">4. ОС</tspan></text>
      <rect
         style="fill:none"
         id="rect224"
         clip-path="url(#clipPath2)"
         y="150.5"
         height="321"
         width="143"
         x="702.5" />
    </g>
    <g
       style="fill:#ccffcc;stroke:#ccffcc;shape-rendering:geometricPrecision;text-rendering:geometricPrecision"
       id="g226"
       transform="translate(-129,-135)">
      <rect
         style="stroke:none"
         id="rect228"
         clip-path="url(#clipPath2)"
         y="268.75"
         height="96.75"
         width="88"
         x="730" />
    </g>
    <g
       style="font-family:sans-serif;stroke-linecap:butt;stroke-miterlimit:1.45000005;shape-rendering:geometricPrecision;text-rendering:geometricPrecision"
       id="g230"
       transform="translate(-129,-135)"
       stroke-miterlimit="1.45">
      <text
         style="font-style:normal;font-variant:normal;font-weight:normal;font-stretch:normal;font-size:12.00000095px;line-height:125%;font-family:Arial;-inkscape-font-specification:'Arial, Normal';text-align:start;writing-mode:lr-tb;text-anchor:start;stroke:none"
         id="text232"
         clip-path="url(#clipPath2)"
         y="299.78711"
         xml:space="preserve"
         x="750.24017">Процесс</text>
      <text
         style="font-style:normal;font-variant:normal;font-weight:normal;font-stretch:normal;font-size:12.00000095px;line-height:125%;font-family:Arial;-inkscape-font-specification:'Arial, Normal';text-align:start;writing-mode:lr-tb;text-anchor:start;stroke:none"
         id="text234"
         clip-path="url(#clipPath2)"
         y="314.48831"
         xml:space="preserve"
         x="736.7373">(загруженное</text>
      <text
         style="font-style:normal;font-variant:normal;font-weight:normal;font-stretch:normal;font-size:12.00000095px;line-height:125%;font-family:Arial;-inkscape-font-specification:'Arial, Normal';text-align:start;writing-mode:lr-tb;text-anchor:start;stroke:none"
         id="text236"
         clip-path="url(#clipPath2)"
         y="329.18951"
         xml:space="preserve"
         x="749.31152">в память</text>
      <text
         style="font-style:normal;font-variant:normal;font-weight:normal;font-stretch:normal;font-size:12.00000095px;line-height:125%;font-family:Arial;-inkscape-font-specification:'Arial, Normal';text-align:start;writing-mode:lr-tb;text-anchor:start;stroke:none"
         id="text238"
         clip-path="url(#clipPath2)"
         y="343.89059"
         xml:space="preserve"
         x="737.87402">приложение)</text>
      <rect
         style="fill:none"
         id="rect240"
         clip-path="url(#clipPath2)"
         y="268.75"
         height="96.75"
         width="88"
         x="730" />
    </g>
    <g
       style="fill:#ccffcc;stroke:#ccffcc;shape-rendering:geometricPrecision;text-rendering:geometricPrecision"
       id="g242"
       transform="translate(-129,-135)">
      <rect
         style="stroke:none"
         id="rect244"
         clip-path="url(#clipPath2)"
         y="209.5"
         height="37.75"
         width="88"
         x="730" />
    </g>
    <g
       style="font-family:sans-serif;stroke-linecap:butt;stroke-miterlimit:1.45000005;shape-rendering:geometricPrecision;text-rendering:geometricPrecision"
       id="g246"
       transform="translate(-129,-135)"
       stroke-miterlimit="1.45">
      <text
         style="line-height:125%;stroke:none"
         id="text248"
         clip-path="url(#clipPath2)"
         y="233.0889"
         xml:space="preserve"
         x="747.14362"><tspan
           id="tspan4450"
           style="font-style:normal;font-variant:normal;font-weight:normal;font-stretch:normal;font-size:12.00000095px;line-height:125%;font-family:Arial;-inkscape-font-specification:'Arial, Normal';text-align:start;writing-mode:lr-tb;text-anchor:start">Отладчик</tspan></text>
      <rect
         style="fill:none"
         id="rect250"
         clip-path="url(#clipPath2)"
         y="209.5"
         height="37.75"
         width="88"
         x="730" />
      <path
         style="fill:none"
         id="path252"
         clip-path="url(#clipPath2)"
         d="m 215.5137,438.7095 2.5971,0.0337 12.684,-1.7205 11.9363,-3.6151 11.1887,-5.5099 10.441,-7.4045 1.516,-1.4544" />
      <path
         style="stroke:none"
         id="path254"
         clip-path="url(#clipPath2)"
         d="m 271.6498,413.5006 -12.1209,4.6992 5.6263,1.5313 1.2965,5.685 z" />
      <path
         style="fill:none"
         id="path256"
         clip-path="url(#clipPath2)"
         d="m 206.4993,370.4949 4.3247,3.2806 10.8622,6.8813 11.3291,5.8772 11.7959,4.8728 5.5298,1.7446 0.0976,0.0219" />
      <path
         style="stroke:none"
         id="path258"
         clip-path="url(#clipPath2)"
         d="m 258.0893,395.5116 -10.0146,-8.2891 1.4076,5.6585 -4.3304,3.9049 z" />
      <path
         style="fill:none"
         id="path260"
         clip-path="url(#clipPath2)"
         d="m 308.0257,405.0951 5.7297,0.5691 13.4701,-1.2714 12.1984,-4.0071 10.9266,-6.7429 9.6549,-9.4786 4.7438,-6.9116 0.0429,-0.0903" />
      <path
         style="stroke:none"
         id="path262"
         clip-path="url(#clipPath2)"
         d="m 369.1229,370.4358 -10.7001,7.383 5.828,0.1843 2.58,5.2291 z" />
      <path
         style="fill:none"
         id="path264"
         clip-path="url(#clipPath2)"
         d="m 296.0977,314.4865 6.6426,6.1043 10.7163,8.3977 11.2805,7.4659 11.8445,6.5341 6.5619,2.9626 0.0941,0.0339" />
      <path
         style="stroke:none"
         id="path266"
         clip-path="url(#clipPath2)"
         d="m 350.5768,349.1687 -9.0189,-9.3626 0.7623,5.7809 -4.7421,3.393 z" />
      <path
         style="fill:none"
         id="path268"
         clip-path="url(#clipPath2)"
         d="m 195.2358,343.5291 2.6793,-7.6212 8.6001,-20.3515 9.7851,-19.6109 10.97,-18.8703 12.155,-18.1297 13.3399,-17.3891 11.4736,-13.1511 0.0703,-0.0711" />
      <path
         style="stroke:none"
         id="path270"
         clip-path="url(#clipPath2)"
         d="m 269.7203,222.4419 -11.7995,5.4563 5.7119,1.1725 1.6534,5.5916 z" />
      <path
         style="fill:none"
         id="path272"
         clip-path="url(#clipPath2)"
         d="m 294.7152,287.4989 7.3432,-7.3481 10.5459,-8.7749 11.2236,-7.6749 11.9014,-6.5751 7.3626,-3.2046 0.0949,-0.0313" />
      <path
         style="stroke:none"
         id="path274"
         clip-path="url(#clipPath2)"
         d="m 350.6018,250.8869 -12.9994,-0.1298 4.6576,3.5083 -0.9037,5.7604 z" />
      <path
         style="fill:none"
         id="path276"
         clip-path="url(#clipPath2)"
         d="m 307.4735,222.5099 19.9727,8.7574 15.4513,4.9535" />
      <path
         style="stroke:none"
         id="path278"
         clip-path="url(#clipPath2)"
         d="m 350.5156,238.6631 -9.9007,-8.4247 1.3304,5.6771 -4.3832,3.8455 z" />
    </g>
    <g
       style="stroke-linecap:butt;stroke-miterlimit:1.45000005;shape-rendering:geometricPrecision;text-rendering:geometricPrecision"
       id="g280"
       transform="translate(-129,-135)"
       stroke-miterlimit="1.45">
      <path
         style="fill:none"
         id="path282"
         clip-path="url(#clipPath2)"
         d="m 448.0122,350.75 2.85,4.75 -50.3408,0 0,3 50.3408,0 -2.85,4.75 15,-6.25 -15,-6.25 z" />
    </g>
    <g
       style="stroke-linecap:butt;stroke-miterlimit:1.45000005;shape-rendering:geometricPrecision;text-rendering:geometricPrecision"
       id="g284"
       transform="translate(-129,-135)"
       stroke-miterlimit="1.45">
      <path
         style="fill:none"
         id="path286"
         clip-path="url(#clipPath2)"
         d="m 448.0122,237.75 2.85,4.75 -50.3408,0 0,3 50.3408,0 -2.85,4.75 15,-6.25 -15,-6.25 z" />
    </g>
    <g
       style="stroke-width:2;stroke-linecap:butt;stroke-miterlimit:1.45000005;stroke-dasharray:12, 4;shape-rendering:geometricPrecision;text-rendering:geometricPrecision"
       id="g288"
       stroke-miterlimit="1.45"
       transform="translate(-129,-135)">
      <path
         style="fill:none"
         id="path290"
         clip-path="url(#clipPath2)"
         d="m 512.9645,436.4375 20.376,-2.5618 20.2726,-5.6248 18.6742,-8.4999 17.0758,-11.3751 15.4774,-14.2502 13.026,-16.0729 0.0523,-0.0852" />
      <path
         style="stroke:none"
         id="path292"
         clip-path="url(#clipPath2)"
         d="m 622.7789,370.3927 -12.0244,8.3248 6.5568,0.197 2.9118,5.8782 z" />
      <path
         style="fill:none"
         id="path294"
         clip-path="url(#clipPath2)"
         d="m 513.032,357 83.9401,0" />
      <path
         style="stroke:none"
         id="path296"
         clip-path="url(#clipPath2)"
         d="m 605.9721,357 -13.5,-5.625 3.375,5.625 -3.375,5.625 z" />
      <path
         style="fill:none"
         id="path298"
         clip-path="url(#clipPath2)"
         d="m 512.989,242.5556 5.2454,-0.0712 13.7929,0.9179 12.9102,2.0352 12.0273,3.1523 11.1446,4.2696 10.2617,5.3867 9.3789,6.5039 8.4961,7.6211 7.6133,8.7383 6.7304,9.8554 5.8477,10.9727 4.9648,12.0898 4.0821,13.2071 1.6687,7.4714 0.0148,0.0989" />
      <path
         style="stroke:none"
         id="path300"
         clip-path="url(#clipPath2)"
         d="m 628.998,343.6167 2.7624,-14.3618 -4.8213,4.4483 -6.1937,-2.1607 z" />
      <path
         style="fill:none;stroke-width:1;stroke-dasharray:none"
         id="path302"
         clip-path="url(#clipPath2)"
         d="m 655.9885,359.0396 14.1156,0.0202 18.7135,-1.9773 18.1545,-3.982 15.6846,-5.3366 0.0906,-0.0425" />
      <path
         style="stroke:none;stroke-width:1;stroke-dasharray:none"
         id="path304"
         clip-path="url(#clipPath2)"
         d="m 730.083,344.5297 -12.9984,0.2028 4.7457,3.3879 -0.756,5.7817 z" />
      <path
         style="fill:none;stroke-width:1;stroke-dasharray:none"
         id="path306"
         clip-path="url(#clipPath2)"
         d="m 655.9728,437.9223 6.6036,0.0688 14.3201,-1.013 13.3416,-2.1854 12.3629,-3.3577 11.3841,-4.53 10.4055,-5.7024 9.4268,-6.8748 8.4482,-8.0471 7.4695,-9.2195 6.4909,-10.3918 5.5121,-11.5642 0.744,-2.0902" />
      <path
         style="stroke:none;stroke-width:1;stroke-dasharray:none"
         id="path308"
         clip-path="url(#clipPath2)"
         d="m 765.1647,365.4782 -8.7344,9.6286 5.7165,-1.1497 3.7045,4.503 z" />
      <path
         style="fill:none;stroke-width:1;stroke-dasharray:none"
         id="path310"
         clip-path="url(#clipPath2)"
         d="m 774,247.25 0,21.5" />
    </g>
  </g>
</svg>
